<mxfile host="65bd71144e">
    <diagram id="cIw437_D-uf96rBUaZ3i" name="Page-1">
        <mxGraphModel dx="217" dy="107" grid="1" gridSize="10" guides="1" tooltips="1" connect="1" arrows="1" fold="1" page="1" pageScale="1" pageWidth="827" pageHeight="1169" math="0" shadow="0">
            <root>
                <mxCell id="0"/>
                <mxCell id="1" parent="0"/>
                <mxCell id="3" value="" style="rounded=0;whiteSpace=wrap;html=1;rotation=90;" vertex="1" parent="1">
                    <mxGeometry x="-77.5" y="490" width="495" height="60" as="geometry"/>
                </mxCell>
                <mxCell id="4" value="" style="rounded=0;whiteSpace=wrap;html=1;rotation=90;" vertex="1" parent="1">
                    <mxGeometry x="166" y="490" width="495" height="60" as="geometry"/>
                </mxCell>
                <mxCell id="5" value="" style="rounded=0;whiteSpace=wrap;html=1;rotation=90;" vertex="1" parent="1">
                    <mxGeometry x="417.5" y="490" width="495" height="60" as="geometry"/>
                </mxCell>
                <mxCell id="6" value="BROWSER&#10;☀️" style="text;strokeColor=#d6b656;fillColor=#fff2cc;align=center;verticalAlign=top;spacingLeft=4;spacingRight=4;overflow=hidden;rotatable=0;points=[[0,0.5],[1,0.5]];portConstraint=eastwest;fontSize=23;" vertex="1" parent="1">
                    <mxGeometry x="100" y="190" width="140" height="70" as="geometry"/>
                </mxCell>
                <mxCell id="7" value="PHP&#10;" style="text;strokeColor=#56517e;fillColor=#d0cee2;align=center;verticalAlign=top;spacingLeft=4;spacingRight=4;overflow=hidden;rotatable=0;points=[[0,0.5],[1,0.5]];portConstraint=eastwest;fontSize=23;" vertex="1" parent="1">
                    <mxGeometry x="344" y="190" width="140" height="70" as="geometry"/>
                </mxCell>
                <mxCell id="8" value="SQL&#10;" style="text;strokeColor=#23445d;fillColor=#bac8d3;align=center;verticalAlign=top;spacingLeft=4;spacingRight=4;overflow=hidden;rotatable=0;points=[[0,0.5],[1,0.5]];portConstraint=eastwest;fontSize=23;" vertex="1" parent="1">
                    <mxGeometry x="595" y="190" width="140" height="70" as="geometry"/>
                </mxCell>
                <mxCell id="9" value="" style="shape=image;verticalLabelPosition=bottom;labelBackgroundColor=#ffffff;verticalAlign=top;aspect=fixed;imageAspect=0;image=data:image/png,iVBORw0KGgoAAAANSUhEUgAAADIAAAAwCAYAAABT9ym6AAAC+UlEQVRoBe2auaoVQRBAj6CgiWvsErl/gFsgYuIHuP2AC/oHaqoigpqpgRi6gqiB4IbbNwhGYuCCIoqJCy4c7Ho0jztOz7zx3QmmYOhhbq3d1V3VVRemDquA3cAR4CLwFHgBvAI+Aj/S47vf/O1JwpVG2pVTV6M5h0XAfuAq8Bb43dEjryvAPkAZ/w22AdeBb5MUfwfcAE4Ae4AtaYaXAguAWenx3W/OvjjiSiOtPPIJUYaylNkZrE/uEoJ+AnfTzK3uSMoMQF6u9D1AGSFPV1WH1jAHOA/8Skw/AIeBxa05lhMqw/2jTA1ShzPAzHIWfzHnZqvwFTgKzGvKpAP8+cCxzJ3vAOpWBC7z7TQT+u7GIqr/i7Qp20e3AHWshV3JiC/A8lrs6UNQF3XS1XaUiH2YkN14fYMDSbf7JYp9Tsj6Z9/AI9wV+VSiWBx7fTRkYTJEHWshDHEZ+wYH2xjS583eaEVEfg9s7sGybBiR19WqFa5lquC7eY9BaRx7RpnHs4BoahT6FRtiOnA6IzRdMG1YUsth6gjKyFMUlT+VUpTGhoQ6RvZnmUEmdJ7jHgZrSqNsMKsYjdRrE88HI5JGXSugtSHBwJT6GmDuFcwc3Uc3gZMpI96aMtllI9J4v2m8ON47pJFWHjlPZShrVBofeKFX5ViH6Fm+F7gMvJmkQNC2GV8Dl9I9RRlVELyrfp/4XoyYKFYA5meHgAvAY+A58DJddb8DPl51/eZvjxKuNDsb5nTF+gXiOE6pidmseBkie1/TeL2mFsK1HIfIXjtdZQhDZHeewrVizobIPkR2GCJ77Id8jwyRPZ+Vjt+HO/sQ2TtyqSGy56dWTOoQ2YfI3lFkb1qNn847e1x1i6rx0R/pcxG7qD9iVcNUvs9F7O1xEv1rtOpnn05j7CHavxs35D1EC3pFPUSVtnPq3yw0pk9FbGtmxV3dmH377Ocm9dnHVcS2z34WmB3KtRlH/fNhOovYesa6NopX0fSliF2lX+PvnuXjLGKPVPgP0z8eEYZgXpoAAAAASUVORK5CYII=;" vertex="1" parent="1">
                    <mxGeometry x="654.58" y="230" width="20.83" height="20" as="geometry"/>
                </mxCell>
                <mxCell id="10" value="" style="shape=image;verticalLabelPosition=bottom;labelBackgroundColor=#ffffff;verticalAlign=top;aspect=fixed;imageAspect=0;image=data:image/png,iVBORw0KGgoAAAANSUhEUgAAAgAAAAIACAYAAAD0eNT6AAAgAElEQVR4Ae29B9g0RZW3/zMjKhhWUVSCARVMrBGzYMJVVwy7gK6Ku+oaUMQsRhADfvvfFQyg7hpAPwO6IqJrwAi4ChhQEAVRzAEVSSqG73/dOiPzzjvzPD3dp7qrqn91Xe/1zDvTXX3qrqpT1VWnzpGcTMAETMAETMAETMAETMAETMAETMAETMAETMAETMAETMAETMAETMAEOhLYWtJzJB0j6RRJ3x75Pxh8SNKzJW3Vka1vNwETMAETMIHsCFxZ0qGSLpb0//xvIQPYvF7SlbKrPQtkAiZgAiZgAi0IXFfSNzzoLxz0F02GTpO0ZQvOvsUETMAETMAEsiHAm//pHvwbD/7TCcGpXgnIpg1bEBMwARMwgRYEXufBf+XBfzoJOLgFb99iAiZgAiZgAoMTYOn/d54AtJ4A/NZbAYO3YQtgAiZgAibQgsC+HvxbD/7TVYB9WnD3LSZgAiZgAiYwKIEPeALQeQIAQycTMAETMAETKIrAWZ4AdJ4A4CfByQRMwARMwASKIbCppD96AtB5AgBDWDqZgAmYgAmYQBEEdvTg33nwn9oB3LqIGreQJmACJmACJiBpT08AwiYAe7hFmYAJmIAJmEApBA7wBCBsArB/KZVuOU3ABEzABEzgfZ4AhE0AjnRzMgETMAETMIFSCODPfrqH7b/dWOAW2MkETMAETMAEsidwOXsADJ38ECUQpk4mYAImYAImkDWBm/ntP3QCwArKTbOucQtnAiZgAiZgApJ2C5oAEEfgl4X/i4qF8BC3LBMwARMwARPIncB+QROAV+Ve0AbyHRTE4vkNnuVLTMAETMAETGBQAkcEDXqPGbQUMQ/fK4jF4THiOBcTMAETMAETSEfg5KBB7w7pROwt5zsGsYCpkwmYgAmYgAlkS+DSki4IGvQ2z7aUzQXbTNKfAnhcKAm2TiZgAiZgAiaQJYFtAgY7rN5/kGXp2gn1wyAmW7d7vO8yARMwARMwgfQEdg0a7D6eXtTenvCJICawdTIBEzABEzCBLAnsGzTYHZxl6doJdUgQE9g6mYAJmIAJmECWBN4UNNg9McvStRPqSUFMYOtkAiZgAiZgAlkSOD5osLt7lqVrJ9Q9gpgc1+7xvssETMAETMAE0hM4J2iwu1Z6UXt7whZBTPCK6GQCJmACJmAC2RGIGuh+kV3JugsUNTGCsZMJmIAJmIAJZEXgnkFvup/LqlQxwrB8HxEWme0EJxMwARMwARPIikCUsdsbsypVjDA2jozh6FxMwARMwAQyJBB13O3pGZatq0g+HtmVoO83ARMwARPIlkCUw5v7ZVvC9oJFOUiCsZMJmIAJmIAJZEXALm+XV0eUi2QYO5mACZiACZhANgQIehNh5EYgoUtlU6o4QSjT+UGMrhonlnMyARMwARMwgW4EosLentRNjKzvjgqTDGsnEzABEzABE8iCwF5Bb7eHZ1GaNEIcEcQI1k4mYAImYAImkAWBg4IGt+dnUZo0QuwXxAjWTiZgAiZgAiaQBYEPBQ1uD86iNGmE2C2I0dFpxHOuJmACJmACJrA6gW8HDW43Wf3Rxdxx0yBGZxZTYgtqAiZgAiZQNYFNJP0hYHC7WNLlKiZF2X4XwOmPkq5YMScXzQRMwARMoBACtw4Y1DhC+PVCyttFzFODWN2qixC+1wRMwARMwAQiCOwRNKi9N0KYzPM4MojV7pmX0+KZgAmYgAmMgMD+QYMa+dSeDghi9dLaQbl8JmACJmAC+RPgzT3CCyArCbWnPYNYjWG1pPa24PKZgAmYQPEE2LuPmABgS1B72jGI1RjsJWpvCy6fCZiACRRN4LKSfhswqGHZvmnRJJoJj/U+Ze06YeI0AeydTMAETMAETGAQApzb7zqYcT9+BMaSzgpiVrPPhLG0BZfTBEzABIolgOe+iAkAngTHko4JYlaz18SxtAWX0wRMYAGBO0k6VNLXJs5TfiPpDEkEi9m10pCxCzBk/9XzggazV2df0jgBKWvEpKnmuAlxtNPnRKjn+0si2BM6Cl3FFg266w2Sdkovgp9gAnUQ2FISvs7XU5AnSLplHUUuuhRvb1BX69Ulvz+2aAqrCU9ZmzBZ75qaIyeuRnS4q9FB6KL16uqDktBtTiZgAksI0Jl+0KAzTTsbxmdP82rAEpr9fH3iCvU1rbdFf8f0lkRZFzFY9buT+qliP2UBAd760T2rGMCi2+zBcQFMf2UCdIyft1SMH5N0HSPsnQBK8PyWdTY/2F2td+mHe+BVg5hd4MnvIJV4zYarlPNtnP//StJtB5HaDzWBTAl0Gfynneynk324TItYpVhbBQ1kP6ySztqF+lEQO+rAqT8Cu0iivU71Tpu/ngT0V19+UuYEIgb/aSf8k6TXSLp85mWuRbz7dVSE03r7RC1AVijHsUHsqAOn9ATwufCSIB8OtHtPAtLXmZ+QOYHIwX86mPCXvdHtMi97DeI9PWgQO6QGGCuW4bVB7KgDp7QEtm1o6Derg5p89iQgbb0594wJpBr8px3voomRTsYIihftjUGD2JOKJ7F6AZ4cxI46cEpH4FGBdi5T3TT715OAdHXnnDMlkHrwn+1ghF8dk4FZn1X+uaBB7J59Cp3Js3YOYkcdOMUT2Gxyrn9Wl6T67ElAfP05x0wJ9Dn4Tzvs2ZLumimPksVqe2pjWi/Tv1uUDKGl7NcOmgCc0/L5vm05gdtLOjOofqZtfL2/ngQsrw//UgmBIQb/acf7/cSI5zKVsBy6GNcKUpAovrGmXwYxpC6cuhOYnu2/OKheprqn6V9PArrXoXPIlMCQg/9sB/y8JIx6nLoRuHuQkjy+mxhF393Eg9xs2132mbpw6kbg+pI+HdSml9VTk+89CehWj747QwIM/ixVNukAfVzzC0kPyZBTSSLtE1Sfby6p0MGyUvaI9u6TAN0qZjdJ6ISIuojIA115625F8t0mkAeBXN78F3VM/NhfKQ9M2UuxqaR7SXrl5JjlIp5tvts3+5KnE/AZgYMO4ZQPk/RwSZunE7mqnDeZ+A1p025T3+OVgKqa2jgLk9ub/6JOe6r9cy9tnLyFEHGOpdFU+6JEURtrouyL2mTX76gr6oxIjfRBp40JEHeEvt+Vdcr7vRKwcb35m0II5PzmP99pCejxHEmXLoRtKjEp/20mxpKn96Qct0lVmALyxRZlvi2m+P93J2+6rODg0W7MCUO/x0u6sCf2XevTKwFjbq2Flr2EN/9FHfNDkgj0MaaE22TeRN8kiXgKi7ik+g4lPOZJF2XveyCijnEeRJ1fbkwNfdK3m4QaT9Xe2+brlYCRNdSSi1vSm/+iDomC3LXkCmgoO2/6xE3oe9CfZX5yQ1lrvuxLPU+6ZvlzDBE7GFYGeDOuOeF4qWsQn1l2fX/2SkDNrbOSspU++E87da1BhXaYLO/37eRkynX+7xGVtPsuxXjHgBOA2fr4/mRCeJcuhcnw3uggPrPM+v7sSUCGDcwi/YVAqcv+a3XiEyXduPAKJvY8fue/kslAM8t7v8LZRogPg1kmOXxmVYL4DKWfJriRpC9myLdLHXs7IKLXOY9QAn0M/izffWuAzny+pEeH0uonM97k3iaJoEhdFE7Ke+2L4S/+KFIy7pI39glvkXTnfpps6FMI4nPeAG0fHZV6q8GTgNCm4sy6EOhr8Ce875UnCqmLUmt77zsLeCPijQ0HPacNoPjacL1Jl4ZXyb0waMOu73s4Mve0AvoAQXyG2lZhsoSOQld5ElBJB3UxlhPoc/CflWJ3SecOoDjPknTHWUEy+YzCOSRx2NLoAQfjw9oNz5o0Dxj8bIC23LY+eas+ONOtMfomfbRt2drehy5CJ80mTwJmafhzdQQY/KOiwS3reD+RtP0ScltJigpHu+z5i77PKagQy/zvkfSHAZTeIjarfMcJBKe/EGDytgq7HK79o6SPS3pgBhM5JlGsTqRyVrUW7y9IuuGShoz90A8S160NA5fA99fpCAz15j9fIix8DxhoAPyUpOvNC9TD/zm7/ZgCvJitpTTZW966B1alPAJnSDnbaqxVl/z2dUnsuQ/hV4A+SF9cT8bo35l0o3vWc6zklYBSeqHlbEQgl8F/VliioX1vACVAABECifSRrjix5serW7Qy6zs/LMydNiSwdwX1+p3J6QF87PeRHjxQkDGOTK4SgdGTgD5ag5+RnECOg/+00FeX9L6BlOgbJDFAp0hXkfRsSWyH9D1Qp3jey1NAqiRPAi2lYN53nj+W9CxJtN0Uib72+oFYvV8SumbV5EnAqsR8fVYEch78Z0E9YQD3qihYrKQJMBKVsCZ+gSS8tfWtwFM8D3uReUOpKFY15fOIgd5qU9Q5K2T4OaAtR6VbTLYcUsi7Vp5s0aBbuiRPArrQ872DEShl8J8CwnDwqwMMnL+R9JSORlEsnxLfvSTL8GWKEx6fmCwLO+zytHWu/5cBE+dNsIPhMr6lfM+JD46ndtkawNCPvjUED3TJMmPk9Wtzwys8CdiQh/+XOQEG/yGt/dviucIkdj3Wyn0ryo9KuvaKgmNAhSHVEMeYovjwlnTchDv+5bso/BXxVXs5RmbEbSBaJYFsfj1Ae45qH+ydE4lvPcO5+cr8G0lHDVBuXIIfJmnTeYE6/r+P0wGsHN62o5y+feQESnvzX1RdDxjobRpHIAyC6yXebP5RUi7++VdR9hy7+uRkmZcjiUQWdEpLAMawZmkd63eOpa5SZzlci7e8hzdcKdulB6c6i5iwAofuSJVwAGVnQanoOt/OBEp9819U8GtJ+vAAinK9oEK82X12ALkWKbym37EahO8BViuIM+A0LAG2VjiLz5tq6gGlaRtpeh1n6O+0BB+rBC+RNMQK3rGStlwiV+TXXgmIpOm8wgjU8OY/D4PY61jT/26AAZeAJAQmmSbOLh8uiQlCU2U55HVflrS/pDtIgqNTngSoG+qI8+k5Bn9a1IYZ4IlZcd0ZpDjWYXKw6PqU37GihY7os417JWCm4v1xeAI1Dv6zVNkXGyKoEC5UHzt5q8ERTkpFFpE3zl1eOPFrPsvPn8shwODyokKcRl0g6cWS9hooiM8Zkm43UNV6EjAQeD92QwI1LftvWLIN/8c5YlzRRgyUNeWBIxe4sMfsVBeBHSaTz9Pd7jfq92xpDb2d5e2AuvpbcaWp/c1/UYXsMVBQoZwmDVgL44seewSncRBgFex1kvAjn1Nb7FsWTlTsmVGV97USgK53MoG/EhjLm/9fCzzzAZ/0QwQV6lvZzT/vpMmRLJ/Pn2kMI/vIUVms8QnqU4o9ynw7bvv/ebucXKreKwG51MRI5Bjz4D+t4qnFcYlR9VZRgLhoxd3srEHilIH/jpsAAw9W92dXviqw3smcHFqBJwE51MIIZPDgv2El30MSzkpWGVRLuJa3/aGitW1I2P/LncBlJscKj6+wHxBP4765V8BEPk8CCqmoUsX04L+45jaX9K4KlB/Hq/Ac18QZ0WIS/nbsBLALeXuhzobmJ+YfkHSNwirUk4DCKqwUcT34r19TvDFzNGlekeT+fwybsOTHtsHJBCIIXGeyPUBwn9zb/7x8xA54WkOvgxGsovPwJCCa6MjzY/A/J3FHxiMZFq2lJ45OnZKY1bzCavt/Aq4QgjUy8lrp9Wf5YwkQ3peYBKUEqqLv0odLTz4dUHoNZiK/3/xXrwgC2vBGnauVNMoYpRwdsGR1Ur5jLAQ4OcJbdc6uh9m6qKlPeCVgLL0rUTk9+HcDex9JWNG3fUOPvo83fg/83erUd3cjwDFCovv9IKN+QayKB3UrVrZ3exKQbdXkLZiX/WPqhwAhxGiPHsxXyQ9LZuKio3ydTCAHAqyS7S2JSekqbTn62r6C+AzJ3NsBQ9Iv8Nl+84+tNML3svzZd1Ah4gdwhn+z2OI4NxMII8DWAKtSxL2IHtzXyo+QyPgw4AjjGJJXAsZQywFl9OAfAHFJFn0FFeI4H/uZWGI7mUAJBK45sZthYF5r4I74jfgVdy4BSrCMTAJS22DgJhw951QggVva2j95rWEVTSjTCEW2KA/OLt80eSn8ABNIQ2B7SR9M2D8IqT3mFTG2A36UkC86iRNjjCVOBRFgrzq1YU4tR/0iqvURkjh/v2gQb/PdqZLwSuhkAjUQ2EXSNwL7B33tkTWACShDH5MAvKMypjgVQuCYwM62aADDEI3ZvdMlBHC8c1xH7uzzs5d5+Uuy9ScTqILA5Sa2M13tA3IN4jNkJW3Xw3YAKzlOBRBgP2zRoB31nd/8lzcCggodKIl9+1V5E5P8esuz9i8mUAWB60s6skX/oE+9QhITCaeNCfSxErDTxo/1N7kROLRF52o6WHnwb1bb95T0vYb18E1J926Wra8ygWoI4FeDtt9E97AEvXM1JU9XkNSTgNenE905RxH4WsNO1aTjzV7jwX+1GsIl7/5rnI0+c3Ke38v9q3H11fUQoO0/VdJZS3QWfgXoQ3Zv3bzOU04CcK3slDkB9pFnB+6Izx7821c6Z5NvNwnH+6+SMBi8RfvsfKcJVEcA3xpYmmPY96RJX7n9iM71R1doqkkAwdGcMidwUfAEwIN/5hVu8UzABExgjkCKSYAnAHOQc/zvt4InAGdI4ry7kwmYgAmYQBkE8Mp4evBYcFoZRR+3lEcEVzpbCP81bqQuvQmYgAkUReAtCcYBnJ45ZU5g1wQVzyRg98zLbfFMwARMwASkPRKNAZzccMqcAAY1n03QAM6VtG3mZbd4JmACJjBmAvhZwId/hPH3bB7HS2JscSqAABa1v03UCHB242QCJmACJpAXAXTzCQn0PmOJ4wHkVdfrSkPI2tkZXNRnzuU6mYAJmIAJ5EXgZYl0Pr4anAojwHJNikhcuOS0V67CGoPFNQETqJrAXSX9IcEE4CNe+i+33RCXO0W4SFxzXqNcLJbcBEzABKohcDVJZycY/PHEeO1qKI20IPiZbxOcZr0tg/ePlKeLbQImYAI5EXh3gsH/T5Lun1MhLUt7Aq9O0ECYIDy+vUi+0wRMwARMoCMB3Iuv97LW5veDOsrl2zMiQAjN/03QUH5jv/YZ1bJFMQETGBOB7SWliP1ysiQHKausJd1I0nkJJgFEH7xiZaxcHBMwARPImcAVJH05gT7H3z9xBJwqJLBXggbD8tJrKmTlIpVDYFNJ20naSdIDJD1a0r6SDpR0mKT3TP4dLenjk39fkHTS5B+fp99zcmZ6PfeSB3mRJ3nzDJ7FM51MYCgCByfS5Y8ZqkB+bj8E3pGg4WAw8qB+xPdTRkpgK0n3lfQESa+U9C5JDNxYKrfZ44y4h2eztYYsr5jIhrtUvLE5mUAqArh7R+dGtOHZPN6bSmDnmw+BzSWdlaDx/EzSlvkU05IUSoC9xx0mMeEZ6HlrH3KQn1WQq3zGdfZxkxUInHLdRdKVC60Ti50PgS0k/SSB/v6eJI4TOo2AwO0lXZygEX1K0qVHwM9FjCPApPGBk7d6BszfJWiXqwzcKa/FUcupk0nBoyYTnTiSzql2AujWjyXoH7+XdKfa4bl8GxJ4YYKGhPJ81oaP8f9MYAMC20ji6BLL5jiUSjnglpA3DP7vhMnWG5Dyf0xgQwLPTtRfXrDhY/y/MRBgNnlsggbFysIdxgDQZWxEgAAlLH+znI/RXQmD8pAyfnuyQsCqyCaNCPuiMRC4TaLVMSLHXmYMAF3GjQlcT9I5CZTymZI22/hx/mYkBLAzYYn7KEkcKxpyQC352bCDISxh6jROAleSdHqCfvQrSV51Gmeb+mupd0vQsFC6b/3rE/xhDATwBcFb69sTOScpeSCPkJ2QrBhEMhnw5HoMPeqSMr4tkY7+x0se4U9jJsB55wglNZ/HI8YMdQRlZ3n/7yUdKemiRG1ovk35/39hDXOO3lIHTvUSeHiifnVovchcslUJsNd4SoKGdr6kG68qjK/PnsB1JT1H0ncTtBkP8KtNxon2iX3FDbJvNRZwVQLbSuI4aXSf4CSKHVmtWhuVX3/zRG9xX5RELAKnsglQhw+T9NFE0SWjldzY8iPi5/9Ieqj7W9kdbSI9KzsnJBj82Uq6dRWEXIhwAk9N0OBQxC8Ll9QZ9kWA/WYc2eAoZGyDaqnlxVHMSyRdva9G4ueEE8AFdYr2t3e4pM6wGgKXmlgdRzc83k52robSOArCeX2WlrEUjm4Pzq8fpmzBEafDlt5l9dm7ScJpVHQ/+bAkdLyTCSwlcE1J7CtGN74fSLrG0qf6h1wI/O3ESQ/ewaLbgPMbhil1ibMhL/3m0suWy4E73rMT9D1WhXAj7GQC6xK4R6J93v9e98m+YCgCxBYnCl6KICMe+IcZ+Oe5U7ccJfREYKhetv5z351g8GcF9t7rP9pXmMAlBA5K0BBRSLiBdcqHAJbGHANNseQ4PwD5/3lMBBgQmOw57ns+/RBJnphI574qr2JamhIIYPVNqNNopf0bSbcsAUDlMrLHj7MmD/zxbTy6z6TKj62B/5JEqGWnYQmwAndhAn2L+20ibDqZwMoEbijp1wka5dcl4TnOqX8CnP/FQpyJWKqBxfmWxRYnThh8XqX/5ugnSrqCpK8k6I+4kvYqj5tYJwKPTtAwGSAO6SSVb16VANa/uJH9YaL6HGrQZzmbI4oENcFlKltXRKR87MRLIYGIbjZxlMOxOIysrrwAHt/xG9fgVId7uBdPh+RFJLZXT1wdf24SyZBnD1XuFM8lMiHeO20pvqCBJPwKXZiiPunvTibQmcARCRooBkkoV6f0BO4o6QsJ6jCF0lqW53mSjpeEC1P2Su8l6UYDL2+ytIoMyPKkiWw4b0HWZeUo4fvPS7p9+mbpJ0jaNZHhLTYeTiYQQoC3o28lUGo/l7RliITOZBGBq04M/Eqz7Gcv9FOSDpD04MkbeUlvpcjKKgKy4wTr04n2d1NOJmgzr3fgoUXdKuw7juVxPC+6Hs9y9MiwOnJGEwK3k3RxgsaKcnQ86vhmxuBTynL/LyS9d+JxkHZWY4AbjGp5q95H0vsk/TJBX4oeSMiPbQGCDjnFEri0pI8naAMYdu4UK6pzM4G/EHhBggaLkiGwjFMMAd4qCMmbYjCIzJOAJBiesXw+xlgRTHpvM2n7xyXyuxFZX/gPIAiUUwwBdF5k/Uzz2i9GPOdiAhsTYNZ6bIKGy6yVfWqnbgQek/GbJatHuCLdS9K1uhWzyruZuGFsSEAf+sNUoef0l5UaG5Z1b35M/H6XoI4xhPVqavf6cQ5rEOAt4JwEjffb3m9cg/raP20u6Z0J6qTr4IOVPG+3BBPyoL92Hc7+ymkEBlreulNsu3Wt1yMdaGi2ulb6jD3VNxP0VbaU7M9hparwxW0J7JagAaOUWLp2Wo0AQZbYp+2q1CPvP03S0z3or1aRS65mZeAZkr6RWR1z9BKX4U6rEUi1PfcPq4nhq02gGwGOY0UOGtO8HtlNrNHczb45Dn1yOYtOnHGOHrGnX5LFfkkNhqVj3Dbj4GXaX4b8y0kBog3a01yzVsQgnaK+3tDs8b7KBOIIbCLpqwkaNCFMt4sTs8qc8NB4cgL2bZTTdyaW7Rw5dOqHAFsErLB8N5M2cKIkYko4LSfAsdAUXlUxpsW7p5MJ9E5gB0m4EW0zcKx1DwrFbxWLqxPHITkcIfvSZJ+6xiN7i8nn9y1GuQ+UhOOetfpTH79hIHi//BBlIRF9BAdR0fXAqtutsiihhRgtgb0TNGw6yoGjJbq44Cyrv2jgJX+WfDFMu9tiEf3tgATYjz8mUV9sOnCxHcVRYW8BbdgQXp6oXp6y4WP8PxPonwCd/agEDRxlskv/xcnyiZtJen8Cxk0VO9fhtAQnPU55E7jDZJK2St1GX/shSd4S+ks7YbKcIuImR2o90cq7L45Gumsm8jqHpfGiwC2jATsJSnPGgIM/fh/uPCbglZT1rhMXxNGDe9P8OOo29kh0RFdEhzVl1vQ6PHyic51MIBsCWH+nsEjfP5sS9i8Iy7pD7fezx88RQ6eyCdw7kbFuk8EKu4AxbxcRB6IJp1WuQceia51MIDsCuHZdpTE3ufZnlfqGX6/yODL0mwQ812OOkycc99ij2Ho1VM7vGAviWChF4Jn12hMe78Z4tBfDP4Kdrcdn1d/RsU4mkCUBzqZ/MUGjH1toUgbgviP44XGOM914FXSqkwDbafiOwHp81YGny/W0ZZ47poRr8y7MFt2Lbh1j3IwxtZviy8oZ9ejzro8unkqzAtC535JAcSxSJrPffVLSjZuJ6KsqIHBTSZ8ZoJ3954hW84jrMNvHun62f5QKOt5YihDd+Mdw3AW/B31b+p87We5nidhpXASwIGdbgH36roPTKvdzjBQnYrWnpwZzRac6mUARBFjuW0UprHftI4oodXsh8eT10WBm6zFFEV+vvci+sxIC15b03p7bHitOtZ/uYXK1Xh9c5fexbaFU0r3GVwwGlQuDG/8tKsbIGX/CeK6iDLpci5Hfwyrm6aK1I4DRaZ+rAWxBcEyu1nTr4D6NTiUSq5MJZE3giOCGf2bFDi9wltKnG1fO9PutP+vuM6hwrAZ8JLj/rjVZPUnSNQYtcbqHs8VyVjDLt6UT1zmbQHcCf5vAF0Ct+/9Xl/TlYAWxTNli9f1MSd7r797Ga8+BNvIcSRzfW9aeIr+nDxDcqMYUbQfAaQp746yxpVRQJma8xwcrjdMrDQrEsv8XglktU8owZDnSyQRWIUDo4W/11EbpCzVuB2DYi0fEZX2zzfefW6USfa0J9EXgH4MbOp0DL2a1pSv26KL1g/bJXlvz6bU8DMrvS9CvFw18vDxcqdfS9fOw+yTgZxuefurOT2lIgPPr7NUv6thtv3t3w2eXdBlvBH1EbCP4CFbDXvLPq3Uw+buZJFw8s5S7naQtMj8Wx8oeWwIpAtrM6wYCTtV4RDD6lAUrMw7DnVffHrU0Twge/LF43boyorjWfU8wp3kFyv+x8uetwykfAgTm+cA6p2OoNyzj3yDpyZLumW0/IO8AACAASURBVNmyOPL8tIf2C6faBjcMb3Hks6i/tv3un/Np3pZkzASYsUdHvMJgrabEW1QfHv5OlbRtTeAKLwv+Hbqcivm9pOMkvXQSVIcVpCETXj6/ETyQLRoA8RhYW2IVZVFZ2353tqQr1AbJ5SmPwL7BDZtBrDZ/1y8OZrRIaXDEzzHY8+k/DP7RRzwvmHiLfMiAS+VY7H+qh/a8Xz5VGSIJk7fTgrlxysDJBAYjgDcvovUtGpDafsf+aE1p9x4C+3A+eOi3w5rqLKIs/ze4X8z3p19JevNkq6BvWw/a2uGJy8eRt3+KqIiM8tglmBnRHWs0nMyoyizKWgReENyg2f+rKTGZSXmeGiXJ6gJbDE75ENg5uF/MD/7z//+upGdI4nhpX4k2d0DicuK/4m59Fain53AyZ77+uvz/+T3J7ceYwAYEOCL0y8DGjJXx9hs8oez/EHEtks+8kmDw9xJgnm3kfwL7xXy9r/V/onD+W88GtP+awPnXbBlxT3yTPKu5lVToBWw7ZsvY5TN8avSh0Aqub+qPQLRRC9bPtST24s8I7OTzCoLJ0l61wKqsHLyFp1z1mW8Li/7PAPOuHifUjwwe1ObLxLG3zStqJ28M1g2s/jiZQG8EsPz/UWAj5ojMdXqTPu2DWBpNGdYX5Y7CdcqTwG0D+8X8QLjq//84OXrax5FaggldnLDsLJ3XstWFrsOgc9X6XHb9jyXhY8LJBHohgH/+ZY2xzfc1hbp8UTCbWZ7siT6wlxr2Q9oS2DVh/c+2hVU+41eD/frUNgIPkkQbXUW2Va6tab97/2BObMU4mUByAhzR+05g48W5SC17WLguTuUxjbcrD/7Jm3fnB9wpsG+sMjg2uZYTO49P/CbNJCDVSgArGkywakicoOLNvUm9NbmGyIO1OVCqoZ6rK8NjAhstDRuvZzWkbSZe+Jp01lWvYVLBcUKn/AkQUhcDzVXruM/rPy3pRglRPjShTQCGtTdIKHufWe8d3E5qOzbZZ134WQ0IsAeHo54oZfWDSrxZcS765EAus3x562HS5VQOAeLcz9Zhjp8vmvj4x0V1ivTYhBOhL1biLAxbqh8GtpVTEq/upGgnzrMgAvcNbKwoRWbANaSDgrlMBwzeJJ9UA6CRleFfErWHabuI/Eso3psnqp9oW6HZch+YSOa+s316cFvB2ZCTCSQh8OHAxlqL5SqOSlLt++Pkx6k8ArxVfzmwr8wOfCk+Y7iHbUCKlMpZECtjOFwqPUWfqOK0hJMJhBO4cbDDD2a+pSfO+xOUI4VSxpVsLceeSq/nNvITlOnnidpGivZGngSsij5ORht+eyIO35d09TaVk9k9zwrkw6phTY6TMquq8Yrz2sBGimLECrb0hLOVFMqYsLCO9FV66/iLoV10AJgU7W02z69IIupfZOLk0CcS9ZUjIwUdKC/8+UfGVHnNQOXwYyslwPlh3IzOKooun5nxlp6iT0NMeWJk6ah+pbeOS+RHuRMz45zA/jNtK6n+Ymn/gEuKEPKJN/VUoYQfFSLhsJng4yCqPs+rzHPisDXjp2ufwMaJcin97Z+jXin8/DNIsHTsVB8B7AKwF8GoEycwr5PENs8nJeELI0r5R+XDUvIzg6uB43v4ro+ScZoPeW4RLGvf2fGSdW4gm6f1XQA/r14CkUf/XlkBJpYdp8on6i9GTfergI2L0I4Ak0rq/1WSWIbPxZfAwZIiww3fK5HRLNtxpScCOUXpE7aenEygM4G7BDZK/Nhv1VmiYTNgaTSqk87m89xhi+WnZ0YAf/FY5h+XwWTg3cHn7l+YqA/9fWZ1uKo4xGyIjBS406oC+HoTmCfwtsDOypJnyYllOiyPZwfuiM8fsMV/yc0iuex47WPbINJpzKrt9qhAw1ROBrwvQT+CT+n2M+8N5PJfyVumH1A1AUJwEkhkVWWx7Po7Fk7rsEAWU0an9xCkpXDsFn9CAI+TGJ9+PUE7nLbHtf5+JHASgG4hzO9az2vzG7YVJac7BzLB22PpE6KS67J42SM9eeG+s+TE5CV6X5a48TuWDMWyD0KAN+i/k0SfajNIdrmH1aqooDO3kUQf6CLP/L3Y0txukFqJe+j/BjJxlMC4ehldThgjzXewtv8vOZgNCheXqW3Lvuy+aCvr0TXQkReYdvlwSWcmaJvL2izfHxFoGIjty1rPavPbCYVvqe0ZyIS4FE4msDKBWwU2wh8FGxGtXJiON3DOuI0iWuseIrJFWld3LKJvL5gATqP2DfbVsVbb5bf/L4gXfeDYBP2LQbTUhOOkyFDBO5QKwnIPR4DjSOspgaa/lxy4A58F0cZX+BAo/TTEcC3TT15GgJMD7w/st+v176hQ3tdN4B+ASKM4YSo1cVx6Pf5Nfy9Z/5Zaf0XLzdLid4IaIPvmKWOPpwb9siAOs52VZVsnE0hFgLffPuIQcGQtyncFW4SzfSTi80tTAe4h3+0CbY6+W/iWSA+4/YhZAngsi+iA5IGns1LTNpJ+E8gCHhx/cjKB1ASuKemY4La7SCfghS/KeyVHDRc9o+13WMGXvNJGTJC2ZZ+/j9MFTibQiMChgQ3vEY2emOdFbw3kQIfE1SfLnU4m0AcBVvKek8jz3uwAg7FwRBTBLSX9KrjPvbkP0ImeEWl7VPrxyESIne08AQxQogKX0Jk3nX9AIf8n/HGkVy4U5uMKKbvFrIvALj3EG3hDELInBk8A/lBweFwmVVExR1ipwY+EkwmsSYDzxbOz+y6fD1nzSXn/iNfCLmWfvxerf97InExgCAKsPH01uE3PtnFsfSIiCHIq4LPBcr59COBBz+TNfZZzl8+7BsnkbCom8KbABve3hXK6uSQcinTpbLP34uwEox4nExiSwFUkfSywXc+2cT4T0z4iKt/NJF0cKCerAORZYsKp0Tzntv9/Y4kALHN/BAhZGhWa9Jv9iR3+pOijVK8Ol9AZmkA7Apsk8sM/HZTwZR+R/j1w4EM2AhqVmqJcJqPb0fFOJrCQQKT1f6lHcHDNG+nyl06H33MnE8iFAINA5ErfdPCf/mUbsWu6WvBRRlb0btlVqIHu5xz/lG3Xvz4NMFAllvDYyFl3qd6neFPo2slm7/+XEireMo6OAPYo0adcpu3+7CAnPNEGgbgwLjExcZmy7fr3/5QIwDL3Q+CsoIb2tX7EDX8K5/4jLf+/7CW38DpyhnEEOPHz4aA+Pz8w4UCra2KlItJwkb5dql+AU4PqCQdvTiawEYFbBzUwFMELN8q9jC8iV0DgwPErJxPImQBHzaKt7mn7OOG5fkDB7xOol5Cr1DfgFwdyuEVAvTiLygg8P7CBcYa+tLRZcDAVlKqTCZRAgP32KEMzBtnpv/8MKjxHaKd5dv17nqSrBsnVZzY3CWSAcygnE9iAQFQnY9m7xESn6KpcZu/HoNLJBEohQPRP3tpn23DXzxy/2z4AwF2C5XpWgExDZBG1HVKye/YhuFf/TM4HR527LdH6n71Qood1VXjT+/+n+hbjAtZIAIPVaRuO+vu2IFAfD5Tt+4WGJ48KTIZfEqKcOpnAnwk8KLBz3b5Apg8LLD+K8w4FMrDIJgCB6JMBrALcMAAtDnEij+fuFiBT31nsFKinIrw29l1+Py8RgdcGNSzOvOPKs7TEG3vUG8+HSiu85TWBGQJXknR6YH+gX0UFovlIoFycfigtoVujHLWV7Ka9tHrLXt4zgjrWW7Iv6cYCciyIt5SoCYD3/jdm7G/KInD34Lft84OcYe0c2E9xDLR1WdXyZ2kPD2KA0afTiAkQL5yO/vSgBsUA+vACeR4QWP4TCyy/RTaBRQSig2E9edFDWnz3hcD++pIWzx/6lt0Dy7/PZAxgLHCqlABHfLCifbyk10jCmOZHgY1o+uaMEWFpx2suG2z894+VtiEXa3wEri3p3EA9cVpQNMw9A2XCGLA03/jo80hnZVP9TdjhkyQROZETUQ+UdINCt3RH11sZyIg2h2HL8yaVyNsoS2/TCk79t8SjJZHGj3jYoh6cTKAWArwhRuoNDPm6JvrYdwPlun9XgQa4/zOB5V+vfhlDGEuYGDC2MMYw1ljXDVDxl5eEj32W2pmlUSnM2qLP767XKBb9jiOh0tKRgR2JrRQnE6iJAG/HkQ6Corzw7RvYb99VYIW9KLD8i3R5k+9Y8f22pKMlvXKywsxKM0akTh0JED3uNpOBnn2q90jCF3SksVqTSl7lmtKiTHEONmriRD4szTmZQG0E/jlwsPle0JIyW40XBslFPqUNWthuraKb+76WLWa2mtlyZuv5XpKuVVvHiCjP7P48syhmU8yqIs+79lH5dKIrRADpMY/IvURWYpxMoEYCOMmKXHK/UxAkIvtF6bZ/CJKpr2zQtVEvL1EMm+SDncFxkg6bszMgMmXVacvJLGjWEO8ngQ24CfyU13yiwNo7KpD/XQssv0U2gaYEIt1k79/0oetcF/kWzFZgaelTgfor5djQJO9fzRkgssXNVndRPmUwisBqEutJOgyzHGY7fRriNYGd4prSov8R+Oc3QR0IpynVz2BL046WN5TANQLfOL8YKBknCyL0GboAnVBSYms4ouw554HLYra+2QJnhfxRk61xIlgOlpYZ4kUNKDlXyDLZSnN+Q0NaVpZVv8cgyckEaifwjqA+gwOeqHPnzw6SiT7PlmBJ6R6BZV9V5w19PccgFxkgJolvcF1JKHmWjM8qcH8+dWUx8dmkpJ4zqcsILhhl2rilsMq3uK0I7Bo44DyklQQb33SdQMPo92+cfdbfoHPH/NK5SH9jO8cYzVjNmM3Y3Toxm8CHNcsQix7m7/7CpbT9f1ZworZlsHR1MoExEGCL82dBuvBVgcCi9sLPk4RuKCmhez0OLWfA2E3Mg5VPeTBziA6IUWtFPamkHjMxxoyqC8KnOpnAWAhw2iWi7zBoR6V/DZKJcrGsXlJ6SmDZI+o11zywFcEQv1Hizf8bBtuoo/NGsPLsqlEtpLvo34LqFkcYGEc5mcBYCODqOkLJswIX5YL3bwJd40auTPTRJhirzgmqk4h6zTkPJgGNbAQONdDGnXyPPlp58DOiLIdLDCcajNLZjYwAE94oHyU3CmT3sSCdfUqgTH1l9Yigsuc8eEfJtm5YasJD8mYX9cCa83l5Xy088DnUb1Sd7BUol7MygVIIRK2ORvrgZysuol8zubleKRUxIydH5CLKX3se2ARcf4bbRh8jHV7UChOvf6Xt+08rOmq/EEWxxTRT/zWBERH4r6DBJjJ2Bvu7USsTpdr17B3oq6HWsYtyPWutvsqybs2F71I29vsPlsRbdKmJwB9dGEzvJQCTkwmMkQADzbQfdPnLVmtk+kqQXLgYLjVtM7F6jzqt0aV+c733Q2tV7leDGlGuhW8iF2/4J0vC8cd+kh4q6SaVeLsj/ncTButdc8Bajci/mUDFBAjssl7/aPL7McGMXhEkF2G9S094JkVno7vR4ehydDq6vUnd1HwNE8WlCe9CNRd+tmwEZjhe0pskPUMSjj62rWSgX1TBkfv/UQFNFsnp70wgZwIckZ7VI20/R6+iRcYGKNEOoEmbYWKAjkfXo/PR/YwBjAVt67G0+xjjl6YaJwCjjcA0V8tR0f/giVMUJxMYIwEGkQjnaKzGRSb65LlBA1lp0QEjONYSmXa9CUm1EwDHYF67G7w2SDmUGDlsbTL+1QRWIxCxlcYkIjqI1geC+jhx7J3+QmDzSQAeIvQRgIjAPATowQ36eoNtjr8XPQHgiCIFOHoSHYnwwncp0BnPEJ0rykhonyGE9zNNICMCJwYpf+LaR6ZnBskVvT0RWcZc8loWFO+ioDpINXkoYgLA7HgaBpFZF7Ov2xQYdCeXxooHqKgZ6+1zKZTlMIGBCBwbpOSjQ/DuFCQX0eY2HYht6Y9lK+YGE5frT5N0mKTjJBFrIdWgvkq+WU0AfiWJ2SY+tvFBwEC/g6RLl94KMpM/SjEwuy0tYEhmVWFxKiCABf8qSnfZtdGRNC8XaOnuiX58Q8VfA6dIWLlmm4VgamxdL2sfKb4fZAIwa4jHrAgIzJKc+iHwhKBGFhnEpJ+S+ykmEE8AO5gI5bxVvGj6TJBs/5xANme5mAAGiKxwP2qytc0WNwN1lHOn2baafAJAjGaCSjxGErPI6GWuxQj97VoEogwAX7bWQ/ybCYyEAMfHZpVq289XT8ALF+Vt5Zm97z8SyOYsVyPA2MkYyljKmMrYOltHbT4nnwD8fLUy+uoeCES9FTy4B1n9CBPInQB2SW2U7+w9bKdFnwKA20MCZEPOT+ZeCSOUj7F1tg21+ewJwMgaDkoGW4s2jWX+Hm/bjKzxuLgLCUQ43VnTJevCpzb7kiiD8/22zf9/0exxvqpHAp4A9Ai7lkdFeQDEijXFG0stnF2O8RC4jKSzOw60j0yECwPq8zvKNp0w4PXQKR8CngDkUxfFSHLfIGVwQjEltqAmkJ4ABlvTgXLVv6dIYhKRKv1vB9lmy4KxtlM+BDwByKcuipEkKgTwG4opsQU1gfQEWA17Z4uBlrfzWyQW740t5Jod+KefSw0NnBjvYNl7AjAY+nIf/MogZfDkchFYchNIQgBnOau43+U49M5JJNkw06iQxQdumK3/NzABTwAGroASH//uoAmAlwNLrH3LnJoAe+5Pl4TR3PTNedFfznbfMLUwk/zvt44si+Rb9B1hdJ3yIeAJQD51UYwkXwhSBlgXO5mACSwmQNAY7AIYNHH9+mVJeAw8QNKOi29J9u1Ngvq87X6SVVGrjD0BaIVt3Df9LEAZ/FFSdOCScdeKS28C6QhsEuRF7sfpRHTOLQh4AtAC2phvuVLA4M/SYHTs8jHXictuAn0QiPAxjytaBwXqo7aaPcMTgGacfNWEwHZBE4DPmqgJmEBRBI4P6vt92S0UBXcgYT0BGAh8qY+9Y5ASOLxUAJbbBEZK4Iigvu+ogPk0IE8A8qmLIiR5YJASIBCFkwmYQDkEXh3U9+9fTpGrl9QTgOqrOLaARJFadLxn1e+eHSuWczMBE0hM4LlBff+fEsvp7JsT8ASgOStfKemZQUrAscHdnEygLAKPC+r7+DhwyoOAJwB51EMxUrwiSAn8fTEltqAmYAIQ2C2o77/MOLMh4AlANlVRhiCHBSmBu5ZRXEtpAiYwIXC3oL7vGCD5NClPAPKpiyIkaROsZJF9wM2KKK2FNAETmBLYPmgCwGkCpzwIeAKQRz0UI8X7gpTA9YspsQU1AROAwNZBff89xpkNAU8AsqmKMgQhAMmiN/pVv9uijOJaShMwgQmBawf1/aNMNBsCngBkUxVlCPLRICVwtTKKaylNwAQmBK4e1Pc/YqLZEPAEIJuqKEOQTwcpAfsDL6O+LaUJTAlExQH55DRD/x2cgCcAg1dBWQIQznPV5f5F11+2rGJbWhMYPQH67KK+vOp3xBRwyoOAJwB51EMxUpwcoAQIBexkAiZQHoE/BPT/k8ordrUSewJQbdWmKRidd9UZ//z1ngCkqRvnagKpCdB35/vzqv8/MbWQzr8xAU8AGqPyhRDwFoDbgQmMk4C3AOqrd08A6qvTpCWyEWBSvM7cBLIlYCPAbKumtWCeALRGN84bfQxwnPXuUpuAjwHW1wY8AaivTpOWyI6AkuJ15iaQLQE7Asq2aloL5glAa3TjvPHIACMgjIbsCnic7celLpeAXQGXW3fLJPcEYBkZf7+QQFQwIAKLOJmACZRDYIegyb+DAeVT554A5FMXRUjicMBFVJOFNIFwAncPmgC8PlwyZ9iWgCcAbcmN9L6XBymB3UbKz8U2gVIJPDSo7x9QKoAK5fYEoMJKTVmkZwQpgX9JKaTzNgETCCfw+KC+v0+4ZM6wLQFPANqSG+l9jw5SAs8dKT8X2wRKJfD8oL7/yFIBVCi3JwAVVmrKIj0gSAm8OqWQztsETCCcwL8F9f1dwyVzhm0JeALQltxI77tjkBI4fKT8XGwTKJUA1vur+v1fdP3tSwVQodyeAFRYqSmLdOMgJfC5lEI6bxMwgXAChPFdNKCv+t0NwyVzhm0JeALQltxI74vyB/79kfJzsU2gVAI/CpgA/EnSpqUCqFBuTwAqrNTURfpZgCIgrOgVUgvq/E3ABEIIbCKJwXvVt/3565lEOOVDwBOAfOqiGEm+EKAIUAxsJziZgAnkT+CmQX2ecOJO+RDwBCCfuihGkncFKYN7F1NiC2oC4yaA5f7823yb/79j3BizK70nANlVSf4CvSJIGTwl/6JaQhMwAUlPC+rzB5pmVgQ8AciqOsoQ5glByoC4Ak4mYAL5E3hzUJ+3B9C86toTgLzqowhp7hOkDD5fRGktpAmYQJTdzy5GmRUBTwCyqo4yhLl+0ATgAkmXLqPIltIERkuAPkpfbbPnP3/PdUZLMc+CewKQZ71kL9U5QQrBTkGyr2oLOHIC2wX1dQYbp7wIeAKQV30UI82ng5SCwwIXU+UWdKQEHhLU1z85Un45F7uICcBvJL1K0l6S7iBp85yJjkS2g4OUwstHwsvFNIFSCbwyqK//e6kAKpKbsZMxlLGUMZWxdX6bZtX/f3stPvy4aoZNrv+lpOMkYUnOEZV7SbrBWoL4t1ACjwuq18+ESuXMTMAEogmgZ5vo5PWueWy0YM5vKYGrSbqNpEdJYgJ3tCTG4ghvjvP1PMgEYF6I6f9/JekkSW+X9BxJD5e0g43NljaUtj8wi5wy7/L3IkmXbyuE7zMBE0hKAHfdEW+J6IjbJpV0nJlvOXn5fbyk10j6uKQfB+nmpno9qwnAMqF/J+lUSe+R9JLJxIAZEj6unVYnQFCgPwQ1NCYTTiZgAvkRuFNQH/+9gwC1rtzLTla3WeVmtZtVb1Zlzg+qm2VjZtPvi5gALCvMxZOlEZZIWCphJnUXSQxwTmsT+FJQA9x37cf4VxMwgYEIsIq6THeu8v2JA8lf0mNZCWW1mlVruLOKzWo2q6SrsO772qInAGvBInIVSyosrTAxYAa2RUktKrGshwQ1zPclltPZm4AJtCNwVFAf/492j6/yLgzxWH1moGc1mlVpVqejVlTXGtNS/FbtBGAZrFkDRGZqD5ws0Vyqyua6vFC7BykH7DZY5nIyARPIh8DlJJ0b1Mcflk+xepMEQzxWk3l5TG2It2ys6uP70U0AlkFlYnC8pDdJeqYkImhtK6nWicF1g5QDPOkoTiZgAvkQuEdg/8ZYrcaEbkfHo+vR+eh+xgDGgmXjRG3frzkB+OqIQCyr2AslnSyJUJj7SXqopJtUMjE4O6h+HSWsRvXoMpVMgHPiy3TaKt+vOUAUAoiBHp2N7kaHo8vR6ej2VVjUeO1X1qrDYwxoaQPBC9NrJW2zFsDMf3tnUP1iUOhkAiaQD4FTgvr22/Ip0sqS8HaPjo7wmFfj4E+ZMKBfmp4d1IhqhUe5sPJ86lKCef/A/lZE3eCgwoFC8q5rSzceAmzvRTmNKdUB0D6BPhAidGSuebD1sTRtJYmjdrkKn5Ncr1hKMd8fqN8ohv+cbzEtmQmMikDkxJ7JRGnpoEC9FqUfc8wH/zpEh10zvd4wGw+Se65JMs8fOcIS0Tg/mmfxLJUJjI7AsUF9es394Uyp/lNQ2SN0Yu55cBR83YRTndMMtdEgyV7TldclmtcF/yeobvEWdq28imZpTGB0BK4pib4YMfhw/K2kdBVJUaHOI/jlnAcvfo0d5nEMJOpNMWcoEbI9uaQeI2mXIGUBuycUVnaLawK1EUD/ROgx8rh7YXD2Dix7FMMc8/l6G5stZguEkf2tIa/ZwT5RWKfBhWWUX2rHDC+s8i1udQQ+G6Sfz5OEM6GSUtTWR46DdoRMjN14ddy0S6Vi7Y2F5QcknSXpj0ENLqKAOeRB9K3SghRRlxHscId57S6Ny/eagAm0JsBKbZQ+Ls3FNzo3KvJhhC7MIQ/aAmM0+p1AREl0c6lBEFJW0N1ad+Fhbnxk0AQApmseKxmmeH6qCYyCwHMD+zGuwktKkZ4PU44NKfLG5gOHTfNB8Qa1R5uGQcTXPj73cwuDmKIipnm+qKSeIwnjmaioVd+sxEtiYVVocUdOAG933wqaAOAhb9DBo0VdEphnqn9r/cuxPWzxCECEgeajJoGJSltxFktVROfjvCrR+oja9+OKKpC9qNLSfwfyL20FpLS6srwmME9g58D+ywBTWvpUYPmHnkAQYI1QwoQU5uWZyIOEGr50aZWyqry1RGDibfoKqxZ+4OujogPSeQ4fuCx+vAmMjUCUW2/6Lz7zS0ro2hL3/x2ZtmErKzEG850bli2Xy7AMvSBoFk1nvHouBbMcJlA5gWsEDoDogMbnwzPhynHFod/a13r+jyar3Kx2s+rN6rd9pgQ0npwNEIk6VVpi6W+thrzKb/uWVnjLawKFEsDwdpW+uda1rCSUll4cWP612Kz1Gy7zFxnilTaZKq3uF8qLASLhH3eT9LzJkjR7KlFvuGs1hOlv7EmVljDYnMrf9e/3CzxHXFp9WV4T4Kx+VFhv+vz9CkQa5fugic5jDGEsYZuTsYUxhrGGMcepAAJ9GSByNOOqBfCYFfEywcqkxNgIszz82QRyJxDp+/57ktABJSW2GqNcH89OAEZriFdS5UfKyp4MZ0mfHvgW/A+RAvaU1/6B5SeYCMeTnEzABNIQ+FJgf2UpvbS0R2D50f2MAd6fL60VBMt7RlCjeluwXH1kR3hIPPrNzoa7fOZ4kpMJmEA8gXsH9lO8xm0dL2LyHN8RxAAfCk4m8GcCrw1qVD8r9OzmR4LKz8Thw25TJmACSQgQgrvL5Hz23mOSSJg2U7YroqL/EefGyQT+TOBBgR3rjgUy5RzwrHLo+rlEBgVWm0UeEYE7BffRBxfI7i6BDP6uwPJb5EQEcI2L28WuAx/3H5BIxpTZYlmMFX9E+ckDT49OJmACcQSIvBnVPzH+Ky3yHyRfEcQAXV+a6+O4luScFhL4dFDjwhCuxPSsoPJP4ucY7wAAIABJREFUlRTGNU4mYALdCUS6/aV/luqz42tBOqpE1+3dW5FzWJPA84MaFx3sZms+Kc8fN5N0biCD4/IspqUygeIIfCawX/5aEp5WS0s3DWTw7NIKb3nTE7hVYAMrLTrglO6/BTJgInSfacb+awIm0IrArsF98qBWUgx/00sDOdx8+OJYghwJ4NpxuoTd5e83cixcA5muJwkXl13KPnsvoSztMasBeF9iAgsI0HdOCeyP9G2O/ZaYTgviwJFvJxNYSCDyDfgWC5+Q/5dR52ynE4En5l9kS2gCWRLYO2jQm/bFt2ZZyvWF2jGQw6vWf5yvGCuByGMmLysUIlshfwrscD+XRNhnJxMwgeYEcHn7i8B+iOOfUpe+XxnIYafmVeArx0bg0pJ+HNTYzizYLe57gxhM3zz+fWwNyeU1gY4EopyTTftgiVH/pgjRpdNydPn7k0IdtU05+G8PBN4U1NhoqLftQd4Uj9g+2D0we48lnoxIwdZ5msB6BHhTjwx4g6tvItiVmO4QqI8PKxGAZe6XwP0DG9zr+hU99GlHBHJgMnSCZ9+h9ePM6iTAKiRHaLu86c7f+5aCUR0ayKLE0McFV12ZouMhi33r+U7U5v+cq9+0TAy6UfBbCPz+tVAWFtsE+iIQbfjH6tsN+hI++DlXlESY3ja6d/4e4rSU6P0wGKmza0LgDUGNjkb4yCYPzPSa/wzkAAuckHDU0MkETGBjAltJOi+4z5W87P2YQBbYVDiZQCMCdw1seJ9q9MQ8L+LM8IWBLJgEHJVnUS2VCQxO4EPBfe2CwifcnwvkQTAlJxNoROBSkr4T1Pg4UnfjRk/N86KXBHGYXZLbPc+iWioTGIzAIxL0sxcOVpruD94u8Djydws+kdWdpHNoRSDy7ClRrEpN7MPRgWYH8K6f2dfbulQgltsEggmwLfbL4D5GxL9S7Y/Ai8virnpmen+pPlmCm5mzW4UAnvymDajrX3wLlGyAsmcgiynLz0q6zCoV4mtNoEICWP2zTTjtF1F/H14wq8tL4sx+FAuONTuZwMoEvhTYCPdY+en53MCWCAN2VIec5vPcfIpoSUxgEAIs00/7Q9RfjhHSZ0tNkdshJ5YKwXIPT+BJgZ3zpOGL00mC20nCnWiUkiIfjiiV6iypE0zfbAKScHIT6fCHPkUfxXd+yemLgXrmCSWDsOzDEiBudqQVfOmWqDg2ipwAkBfRua46bDX76SbQOwF8/Z+VoD+9pveSxD7wboFMOAWxWax4zm1sBIigFTXovadweHQmjIuieEzzOdpeAgtvGRZ/FQLs+x+ToB+dLekqqwiS4bXvD+SCHxMnE+hE4M6BDRKf3Nt2kmb4myNdJU8nAPx90fBFswQm0AuBAwJ1ymwfemAv0qd7yDbBMUgc+S9dXY0q568HdthXV0DuXYE8pgqMvcu/q4CNi2ACaxF4QAJbGvoQsTtKT/8RqFdOKx2G5c+HwNMCGyZn4EtfpttC0jmBTKaTAM5CE4PAyQRqJIBDsCjf9tM+w19il1yzcGDYW+EqfLZcXT4/tXAeFj8jAgzYkY3zORmVra0oxDjo0kGX3Xu6pGu0Fcr3mUCmBP5G0rcS9Rn8dJSeXhDIhngKTCicTCCMwMGBDZQZ+5XDJBsuo3cGMpmdEOBz4ArDFctPNoFQApskCPE77S+lGxYD+kqSiNY3LVPXv/8eWnvOzAQmS9OR5+CfUQFVju9Fuwmedv53F+7MpILqdRECCOCQh/35abuO/MuJnKsFyDh0FqyIRnFBR99w6AL5+XUS4LhaVEPF1WXJvrqnNUzkRE43RHGZzcc+vKeU/bdUAq9K1DcY6O5RKpQZudGBPw1k9IGZvP3RBEIJ3CuwoTLQYVxYQ3p5MJfZScAzawDkMoySAIZos2058vNLKyG6bzCje1bCxcXIkADLeZFHAn8oif3B0hOBjiLdd84qSsIp/0vpgCz/6Ag8PjCc7Wx/4PPnJV22AqJEGv1R4ATgqxUwcREyJ/CowAZLZ9478/I2FW+ryXGkeWUV8X+WO2uwdG7K0teVTeBhCbfFOH6Lw5waUuTxavQMJ5OcTCApAd52vxM4CcD6tRZ/1bskVHzYGZQc4jRpo3Tm2RD4+wQBfqaTaPrAfbIpaTdBOFodGfL325WsinSj6rt7IRAZJZDOvX8vUvfzkOcHTo6mim/697eSULBOJpAjgQdLoo1O22v032fnWOiWMh0YzMlR/1pWhG9bnQBn1Nm/j+rgF0m63upiZHkHdhLvDWQzz5i3oEdnWXILNWYCe0zCW8+316j/Y91O36ohbRkcZfXHldhS1VC3oykDs/Gozk0+h1VEji0NPPpF8pnNi0mADQMrajCFFwWDv0gfIbNtnc/4tS/dffhsFROlb76MXf7PSQInE+iVAN6r8OjXpeHO3sugtkOvJUj7MJxxRHr3mmXFZ04HPD1tEZy7CaxL4MkJrf1p5xj9bbeuFOVccLNgG4lfVOJVtZwatKR/JbBf4ASAzn7UX3Ou4wNOglLuicKMvcRalkbrqPVxlII2l8rJD+2af7+RRDjymtKHgnXm82qC47KURQB//pFerOj0O5eFYF1p/yHx8ijMsDngTLGTCfRBABugdwQPZNNBf/qXFa5H9FGYHp9x72BmnCJgJdbJBAYjsE9wo/5mhYFwUp4MmCrMEyoIiTpYI/aDGxO4uqTPBPf5aRue/VuTxT9wLy/pG8HcavGh0rjx+cL8CODJj6Acs5236+faOj+19qZgRosYY3h4o/yaiCWqhMCNJZ3RQzs+tBJes8VgqX5Rn2373dkVvijN8vLnggg8LrhxXyhp64LK30TUy0giwl/bDt/0vl9L4jy2kwlEEvg7Sb/sof2+v0KHNteXdH4wu8dGVq7zMoEuBBjcoo+91RDne54py4DRRkCLJgbsn75S0qXnBfD/TWBFAhj7Ea425TG/aRv+aKVvtUcGD/7fqnCStGKz9OW5EcBN7bQjR/3FaKa2hLHepxKwWsT8mEripdfWBkopD/4scMCzqG1Ff3dcpQZtuC6OZvXQUhqQ5RwPAd4UPhfc2DEI5K25toRTEyKaRSuGRfmxZ3u72gC6PMkJ3EHSWT21UfoCJ4pqS+gudNiiftn2u8/WBsnlqYfAjgmWCmu1dL2apC8FK4dlSuViSRghsVXjZAJrEaCNvCDYWc2ydsn39AH6Qo0p+oQU2zCezNfYUioq09uCBzWiXNXq6Oaqkji+t5aCjPyNZ92gorbmosQSIKR1H0f8pm36REnXiC1CNrmhsyKjpsLsrdmUzoKYwBIC15V0QfCgdoslz6rha7YD+rIJQIn8ShKBW5xMYJYATnfODe6304F+0d9PVrrsP2V662CW6FR0q5MJZE/gxcGN/5HZl7ibgHhW68vYaqqMMRDkjc9p3ASITMfRu2m76OPvh0fgufJRwUxfMu5m6tKXRGCv4Mb/lJIK31JWDIZShhFepNh5q+CIl48Ltqy0gm9jiZoofucF99VF7Wz2O+J9MOGtPT01mKvP/dfeYiopH3vMOKOZ7fRdPzObHkO6bE8eA+frg9Mb248BsMv4ZwI379n2ZNre8PA3FkPU6JcgHAnVFBXRXbFCApeT9IXgwR/lMTbL16clOE0xVcLL/v5e0mGOJ1Bhr7ykSFjbv6ZHC/9pW8Mx1diWsO+YQA9+URI61skEsiTwigSNnmiDY3lrmK3Uh0m6KAHPqVJe9pf44kxAWI1wqoMAdcly/88GaE+Ew96zDowrlQLmKXjj4dPJBLIjsEuit9axvTnMVuxdJJ0zgNJmcnCKpPvOCuPPRRLYVdKpA7Whn0u6U5HUYoQ+IAF3fAHcK0Y852ICMQT+RtIPEzR2ogzW6CFsFers+0XHWVj29r/oezyP3X0VgX1tFgR2lnR8gj65qI0s+u40R6b8s+6KjpQKa3TtNbNoZRZi9ASwJk5xhI2ZLqsKThK+Avo+ITCv1PHV7olA/q1xJ0mfGHDgp91g6b95/qh6kfBukv6QoD44Slmrg7ReKsYPiSHAEb35wSLi/wfGiFdNLnR23PmmUCar1NdHPDHLsk2xLPyxRH2xafugbT7bA9NG7SOFbRR1Mobj0RvB9Bf5ENghkaGarV2X1zFv4T8ZWNGjfL4iieOZtkpeXlepf4E9UThTnLxpOuhPr2O/v8bonRF1iEFgCpffGFjeKkJA52ECqxLYRNJXEwxEnHe98arCjOz6rTNR+ij/syU9Q9LVR1YHQxYX//nPlJRif3k6oK/yl2h+1x8SSAHPTuEfhTrCwHPTAspvESsj8IYEgz8NGp/kTusT4K2CExJDbwlMBwreRt4zsVD23uT69dfmittMfDVcmKjvTeuy6V/aHsfSvArUrDb/IVG9oYudTKA3An8nCeceTRVF0+uIJOi0GgGMjHgLb8q4j+u+NdkLvs5qRfHVCwgQAOa5ks7IrI6JdMcxVafVCByeqB6ZXDiZQHICKKQUZ9PPlLRZcunrfADcUimWLhMGTnJwegDHQteuE32SUrHEj33F0QN47WtS36z04FXQaXUCHGv+ZoJJwC8d3Gv1yvAdqxEgaMyxCRovbmhxnenUjQBRE1NMzpoMCutdw3LxxyU9zmFNF1by9SQ9YdK/ctnWma9TDP3G6NVvYYV1+PK2kn6XQI/is2OMXlM7VIVvXYXAfgkaLUqGo0NOMQSuJentieppfkDo8v9vT/zSc3yNSIhjSyhq9vSx4zgp0ZZal/qZv5e3fjufiWulbOvMM474PzrayQTCCRCQ5+IEjfbTnrWG1xUZPiAjK/H1FBvRI3Ee86yJ69gaJwSEwL3zZLL7wQHC8K5XB8t+/64k3Ak7xRJgNZUVsWXc237PairOoJxMIIwA+1YYdrVtlMvuY0lxyzApndE8ATwIHpIoRsOyOo34/jeSCFGMA5WHTlzKojBLScjKUVYCOmElT1koUwSbvvLAfoPIgWN3xZ2yzW2RyKfHWfbEmLLaxpf3EQmUF6cIHjQ+lIOUmKVmjPH6GjxSPOcCSTiIepOkp07eSm8qCX8UQyWefbOJLBg6vnkiYy7H9NrWw2ck7TgU1JE9l9WVFCeq2LJxMoHOBB6daOA4uLNkzmAVApzN372gbYFVBq8fTQLfMFH9N0nPnxgb7iaJY5J4rMQRCycRsF5fZME+/Z6ji1zLPdz7kEkoXfIk73dMnsUzV5GxhGtZ7vdxslV6Vcy1r03UljhJ4mQCrQncUBL7s9HK6+uSrthaKt/YhQDcn1PQHnR023N+G/dnViwwRnSf7NKz2t+LfQiutaPbJqtmN2kvlu8cMwG8e/1vgkbJXugtxww2k7LjupXl9BSGndGKzPnFDw4wpe4P87HMLHrk9pJSbB1xwqRGo9osKq1mIQ5KMPijdDjr7JQPAeIKMAhgPeyBdhwMMPBjj/hG+TRDSyLpiYn64KtM1wRWIXCPRJbj719FCF/bKwEM6vAfkKsTGk9Ouk9OpgO/l4V77VorPey/E0wCqHdHalypGsZ7Mc4+Uhg4/UASLk6d8iZwi4lbYW8NdB9wc5m04HWOOBsYNjrlTQBj1BSxPQghzrFDJxNYSgBLcRyyRCsuZqA7L32qf8iRABbzGIbhYzy6PTi/fpieNznL71C9Ofaw5TJx+iTFStyHJTlS53Luo/+F89UplPMBoydbLgCcCXHGPcVbSYq25jylH08mb1ctt9mNXvIDE+nivUdP1gAWEri5pIsSNDqctzhe+ELkRX15WUkPlnRMorcTD9zdJt+8MX5oUkfUlVPZBKjDExLo499KunXZaCx9NAE8mp2SoLGdK2nbaGGd3+AEcN+MLwFcjnrgHpYBtjW4G95m8FZhAaIJ4JAqhR+WUyVtGi2s8yuXAMfAUihyhw4tt000kRyf97gyfaek8xO1oRTtsvQ8YQ3z+0kqKUZCkzblazYkgGfGFO310A0f4/+NlQDuUlM0sLeMFehIy80q0gMnRwk9GYjvUzjQOloS7l0doGdcnSxVeO9/HBdGl3aewPUknZNgAnCmJIzHnMZJgAFqD0nvS7SEmWLCmmOeLP8eOWHpQX+cfYlSU/ffTKCnfyUJR2BOIyTA0uGxCRoV58fvMEKeLvJiApeRRDRCjhTiljRF5LMcB++2Mn17cnTvXnbhurhBjfRb+hD+HNq2q2X3fVYSfdRpZARemKAx0cieNTKOLu5qBK4r6Z8nWwU2IpQY8FnifawkjCudTGAZAQxvlw3kXb5/wbIH+vs6CdwuURCYT9koqc4Gk7BUOBzCdgBL9uMSveV0UY6R93JUDwtsjG7Zy/fya8KGVWHWrNp+PMEkgDggd6qQl4u0gMDmiY5v/cxvMAto+6tVCRC5DJe1DJBMCjB8w7FN5EDcR17srzKhYbDHkdJdJF1pVRi+3gTmCODOF7e+0W34e5JwQ+xUOYF3JGg87Os+qHJuLt6wBK4jaZfJ9sHLJNGOj08Ut6KpciVmBjIcIQmZ2NpARmR1MoFUBDh6m8KW5r2pBHa+eRB4TILBH2X5mjyKZylGSoAjiDhNuf3EL8EjJ2/d+0t6/WSyQPhbTiWwhMo/Bm6MEvnH5+n3XMO1TDBeJ4k8eIMnTxQvz+BZPNPJBIYicEgiXc4Y4VQhgRtKIjhI07ebptd9TdIVK+TlIpmACZhArgSuIOkrCfT5BZIcLjrXWm8pF774/zdBY8E5CeFjnUzABEzABPolsL2kCxPo9ZN9BLXfikz9tFcnaCSsEDw+teDO3wRMwARMYCmBf02k2w9a+kT/UBSBe0v6Y4JG8v6iKFhYEzABE6iTwLsT6HeMDO9fJ67xlOqaiaykvy/pGuPB6JKagAmYQLYEOL53doJJwE8l4afDqUACl5L0wQSNgtWEnQvkYZFNwARMoFYCd5WEo6mmxttNr/uIJMYSp8IIcHSpaSWvch3HopxMwARMwATyIoAvilV0edNrn5pXMS3NegRuKem3CRoD56Uvu97D/bsJmIAJmEDvBNDNn0+g9xlLGFOcCiDAcs0JCRrBuZK2LaD8FtEETMAExkoAHY2ubvp23/Q6xhRvBRTQqrDcbFqpq1y3ewFlt4gmYAImMHYCeyQaA+47drAllB+/5KsM7E2u/a8SCm4ZTcAETMAE/kzgrQnGAcJWO2VO4Mzgij9D0lUyL7PFMwETMAETuIQAkSdPDx4LyM8pcwIXBVf6D+0bOvMat3gmYAImsCEB/Pmju5us8Da9hjgBTpkTSOEb2pOA9pWOZe6dJBFli6OZj5Z0axvUtAfqO6sjgHHZjpO+sc+kr+zkE0et6znF4M8kwROA1lXS341E52s6o1vlOk8CVqtDtk0OlPTzJfXx3cmE4PKrZeurTaAaAkS0Y8Bf5sXuZ5IOkHTlakqcviCpBn/GilPSi+8ndCXwhiUDziqD/bJrPQloVjt4SsRd8jKOs99/U5Kta5tx9VX1EKDNf6thH6Ev2fvo+nWfcvBHZ71ufRF8xdAEWG6eHWCiP3sSsLyGCbv88pbBl46UdP3lWfsXE6iCwFaS3tdCR+GCnL5FH3PamEDqwZ9x5I4bP9bf5EggRQyA2YnETyQRi9rpEgJbSzquhWKb5Yr9xksksTTqZAI1EWDgxgbmvI595ERJN6oJTEBZtktg8Derl/j83wFyOoueCGy5whL0fEU3/b9XAi6pzEdI+nVHxTbL/RuSdrkke38ygaIJEJI88kgafY0+5yT18ebPFsx1DLssAvhuPidwUJodoKafxz4JwNAP5xhTHtF/j5a0Q1nNztKawF8J3FzSMQn7B31vzD5K+hj8GUNu9dca9YeiCFBxy6zQowarsW4H3HYFI6YurNn7fI8kthicTKAEAteVdFii8LTzfek7ku5cApRgGftY9v+lJPScU8EEPAmIrTzOLLOX+buEbzbzSo7/Yx/wSkmbxxbHuZlAGAGO6z0nYJ9/Uftf67vfT2xnLhNWkrwz8uCfd/1kJx2TAG8HdK8WbCs+0fPAP6/4OBtNfO5NuhfHOZhACIErTibFtM359trn/+mb9NGaU1/L/jgrc6qIgFcCulUm55Z/PLCCm1WmP528bW3arVi+2wRaE6DtsRqGLdBs2xzyM1ueD2pdorxv9Jt/3vWTvXSeBKxeRbxpv0bSnzJScrMKFoXH0UFvDaxet76jHQECzTDw/yjTPkH/wECwpsmxB/92bdV3zRHwdsAckDX+iwU+7i9nB9xcPzMReL6kzdYoj38ygS4EaFv79bCdGNXH6Ls1nKLxsn+XVut7NyLglYCNkGz0xaMmwS+ilFFf+eBoBQtslIaTCUQQ2HZigIpVeF/tOOo5v5msVmC8W2Lym3+JtVaAzJ4ELK6kq0p6V4GKbl5hcnwQPwL3WlxMf2sC6xK4zWQpHSv7+fZV2v8/IOka65Y4rws8+OdVH9VJ40nAhlV6jx48KA6hOL8k6fE+ObBhZft/Cwngsvfhkk6oYNCf72v4LCkl8JYH/4XN019GE/AkQLrsxJDuDxUqvVkl+IvJ9sAtohuR8yueAAMOfiYYJGfbTG2fMebFqDfnMNw37uFkhZ38FN9l4wow5klARBCfEpXkSZNVASy6ncZJgBMuvO1/PONTLqn61hczDSrE4P+DxJMwD/7j7O9rlppJQB/OgnjTyCXtGRzEJ5WySpnvuZJeL+n2uVSK5UhO4A6SDnXb/3MAL3RALqmPZX90vJ385FLjmckxlpUAAohgKZ9yYC0x77Mny6N3yaxdWpzuBDgOh7+Ib7ndb9TvibWB8e+QyW/+Q9L3s/9KoPaVgNtJOmMAJcjxvL0kvbiQ44WEJGbAuNlfW4Y/lEZge0kvDQ7Fm2pie4GkF0l67ACxBCgTOgHdMETym/8Q1P3MpQRqnARcWtKzJV08wOD/BUk3nKFNtLS3SuKoXiqFGpkvDlUOlHQnSWMJuDJTXcV8pG6IjPdySV8rpG3RB94y58P/RpLYo49sw03yQjegI9AVfSUP/n2R9nNWIlDTdsC1JH14AIWynsXx30r69AByNVGGy65hD5ElUxwlXW2lFuWLUxC4+sSQjy2tnGJVLGs/s99/XtJOS6BMT+YMMUk+VhKT9NTJy/6pCTv/TgRqWAl4gKQhopQRIGWXhvQfWsgy7azy5jMOYj4zWbq9m6QrNCyvL2tPAMv9u0+2kj4nqcSjq2wvPaQhAvrQEMGG0BnojlTJb/6pyDrfUAKlrgQMGcTnfyRde8VaYNmRI1nfLmxFYHZSwISA44WcJ8cDIXXg1I0Ab8J45HvO5Lgerm1nmZf0+XuTo6eUaZX0N5KOGqjcKYIK+c1/ldr3tYMTKG0lAOOnrw6gMFDOT5bUxe84b9FPrcQhCzyI0f4USVcevBWXIwCnVGgDn5T02wHacfSkgq0J2kAX5zv0KfIYYgKELkGnRCS/+UdQdB69EyhlEvAESRcNoDS/LinSwx4Oep7Xg2+GaGW/LD9sBx7Re6st74HYVuCxcRnHkr4nQiUrF5Fheelj9LW+OaBT0C1dkgf/LvR87+AEcp4EYAz1/gEUA4oIRzpXTFQ7vDnvO9A+aAoly/aA02ICrx6o/UbXM57sni4plZdJ+tobBmKFjkHXrJo8+K9KzNdnSSDHSQBGUd8fQCHwVvvgnmqJrQHeQEq2EZgONHv3xKykx+wzQPud1kfU3zMlPa5HY9DdBlohQ9egc5omD/5NSfm6IgjkMgnAmOiAgSyhPyXpegPUFmV+5EA2DlEDBcup2wzALtdHbjvQ3nZUfX5FEi51h/ARQR+kL0aVpWk+nL5A96xn0OjBP9deZ7k6EWASwB5f0w7T5joiky0zvtlKEseg2uTb5R4s3fGQN4Sym68wXPZyJr/Eo2AHzxdmxP9/3QDtuEsf4F7O5xNE6IEdjV4jqh0DwadJ+t0AHOedfM2Wx9b+szT8uToCQ60E7C6JIDZdldiq97P8fscMaxEvg/9RWHAXzll3OS2RYTW0EgkGqSfSq7bzta7/taR/l3SDVqVNexN986wB9AK6CJ00m/zmP0vDn6sl0OckAIM43IaupaBS/fYOSZtlXovIx/GxUtzA3iRznn2IB4NUbTYyX9oUthu594HNJb1zIKboJnSUB/8+eo6fkQ2BviYBQ0QyI4gPR7NKS7hY/c/MAw819QZXGvtV5IVB5EAdmdf5kt6c6arXeowfPVBQIXRUas+FDum7Xu37994J9DEJiFRuTfIiIAmBSUpOvLFxeuDEDAea/UoGGyQ7DJq0xT6vod0/XhIOiUpO7MHn2O671KUH/5JbZOWyMwkoaT9zWUdcL4hPqdVIaF8MGIcIh7yI9RGlggyUm62lRWz6/g43va+RtGNg2XLICit92vwQQYWi6/CXkm6bA1TLYALLCJQ+CeDkwa7LClfR9/iXR+FT3mhF1TS/kyvi2bYoXxqQPx4H8XVP3IbaDTJ3loSDoqZtM7frPPi37WG+r3cCpW4HHC3pmr3TGvaBl5N0P0lDhJO9sOfY68OS3vjpBICCQZ+DDX75D5V03wZn2DeWuOxv6Nv08T55RzzLy/5lt7tRSl/SSgABRjhHXPtb0HoNkQGJlQGWTAnZGqG81stjzA6BcAC0Hp+I3zkax2oPb/rrOa5Zr42U/jt9HPuGvidebevRb/6lt7gRy1/CSsCpkm454jpaq+g3nwRzOTahk5X7ryVA5b9R9rYDw1r3EUGQOnu2JOrQaWMC9Hn6/loch/7Nb/4b15u/KYxAzisB7H+mClhSWDWtKy4R3XiDJJjPSYGKk0BHY03PDOSIkyq2cR5ewFn9XOp7k8nKyNAD/aLn+80/l1ZiOToTyG0lAOMnAok4tScQFbyGc+ZjTZR9kfJf9Tvqwqk9AXwx5BSC2W/+7evSd2ZKIJeVgKGC+GRaLa3FIhraqgPVouuPby1B+TeeEMTwbuWjGLwEBBX6dFB9LGrnTb/zm//gTcECpCIw5CQgpyA+qfj2me+1gpTlr/oUOrNnoewpi1vbAAAHYklEQVSbDgxrXTe2kyupqhEDQYyBLw6ql7XqbNFvHvxT1azzzYbAEJOA70oicp5TLIEop09bxIpVRG7XCRpkWC52iiVwe0lnBtXPooF+0Xce/GPr0LllTKDPScB7JV0tYxYlixYVjvmeJUNoKTuOaRYNBKt+99mWz/dtaxPAhTaeKletjzbXe/Bfuy78a4UEUk8CLpos51WILpsivTFIQT4pmxL1J8iTg9hh+e+UjgCBwAiK1GZgb3KPB/90deecMyeQahLAMTUCgTilJfD0IMV4SFoxs8z9tUHsfAIgffXirCrKYHN2UuDBP33d+QmZE4icBNQaxCfXKsSd7KxCa/v5E7kWMKFcOOppy2v2vvsklNFZX0IgOqiQB/9L2PrTyAlETAJ+OpIgPjk1la2CBjHip48t/SiI3fXHBm7g8u4iifY6Owlb9bMH/4Er0Y/Pj0CXScDHJF07vyJVLxHHpqL2R8dkqHnVjgPIdMCB/djjVwzRyboEFfLgP0SN+ZlFEMA/9/dXUI4E8XmqleCgdXviCvU1HbgW/d1p0FL0+3DKuojBqt/B3mkYAlOfAcRdaFpv6DZedJxMwASWENhS0lENOtVxkm6xJA9/3R8B4ik0VYBrXffY/kQe/EmUdS0WTX+DvdOwBHhpwZvlenX2AUn4fnAyARNoQOCOkl4v6SuSWDbjHyFq3yoJwycvfTaA2MMlz2ug/NZTjvz+6h5kzeURlLUJk/Wugb3T8ATQRRjEvk3S6RNddZ6kr0p6nSR0mZMJmIAJVEfgwUGD2YeqI7O8QMcEMfv75Y/wLyZgAiZgAiaQlsBNggYzwtmOJZ0VxGy7sQBzOU3ABEzABPIjwPnoVQyhli1r/1HSpvkVL1yiK0qirMs4NP3+d5Jg72QCJmACJmACgxH4esCAxsB368FK0N+Ddwxi9bX+RPaTTMAETMAETGAxAQIuNX1zXeu6PRZnX9W3ewaxek9VVFwYEzABEzCBIgnsHzSokU/t6YAgVi+tHZTLZwImYAImkD8B3tzXerNv+hsrCbWnI4NY7V47KJfPBEzABEwgfwJ4N2s6yK91HbYEtadTg1jhgMbJBEzABEzABAYlsImkPwQMbBdLutygJUn7cMqG9f5ak6Amv3GKgNMETiZgAiZgAiYwOAHO8TcZvNa7Br8CtaabBjE6s1ZALpcJmIAJmEB5BI4OGtzwLFhr2i2I0QdrBeRymYAJmIAJlEfgoKDB7fnlFb2xxPsFMXpV4yf6QhMwARMwARNITGCvoMHt8MRyDpn9EUGMHjNkIfxsEzABEzABE5glQMSz9fb3m/x+0mymlX0+OYjRHSrj4uKYgAmYgAkUTGCzoMHtgkpDPRMy9vwgRpsX3E4sugmYgAmYQIUEfhg0wG1dIZttgtj8oEI2LpIJmIAJmEDhBD4RNMjdr3AOi8TfNYjNxxdl7u9MwARMwARMYEgChwQNck8fshCJnr1vEJuDE8nnbE3ABEzABEygNYEnBQ1yb2wtQb43vimIzRPzLaIlMwETMAETGCuBewYNcp+rEOBxQWzuUSEbF8kETMAETKBwAlsEDXK/KJzDIvHPCWJzrUWZ+zsTMAETMAETGJqAB7qNa8ATo42Z+BsTMAETMIHKCBwf9KZ794q4sGzfxAnSetewjeBkAiZgAiZgAlkSsLHbxtVi48iNmfgbEzABEzCBygj4uNvGFerjkRsz8TcmYAImYAKVEbDDm40r1A6SNmbib0zABEzABCojYJe3G1eoXSRvzMTfmIAJmIAJVEbg0pII6LOeQVuT32sIekOQpD8F8LhQEmydTMAETMAETCBbAg57e0nVOEzyJSz8yQRMwARMoHICRwS88bJC8JgKOO0VxOLwCli4CCZgAiZgApUT2C9o0HtVBZwOCmLx/ApYuAgmYAImYAKVE9gtaND7naRfFv6PMjSxd1jvGpg6mYAJmIAJmEDWBG4WNOitNyiO6febZl3jFs4ETMAETMAEJF1OUtSb75gG+WVlvXjC1I3LBEzABEzABLIncJpXAUKW/pkUnJp9bVtAEzABEzABE5gQeJ8nAGETgCPdqkzABEzABEygFAIHeAIQNgHYv5RKt5wmYAImYAImsKcnAGETgD3cnEzABEzABEygFAI7egIQNgG4dSmVbjlNwARMwARMYFNJf/QkoPMkAIawdDIBEzABEzCBYgic5QlA5wnAt4upbQtqAiZgAiZgAhMCH/AEoPMEAIZOJmACJmACJlAUgX09Aeg8AdinqBq3sCZgAiZgAiYgaUt7BOw0AfitpOu4JZmACZiACZhAiQQO8SpA60nAf5RY4ZbZBEzABEzABCBwJUl2C7x6RMCv2frfHcgETMAETKB0AmwFeBLQfBKA738v/Zfe6i2/CZiACZjAnwmwEvA62wSsuR1ABEW2TGDlZAImYAImYAJVEdhK0rMkHS3pq5I45z7mfzD4oKRnSrp+VTXtwpiACZiACZiACZiACZiACZiACZiACZiACZiACZiACZiACZiACZhA/wT+f337DzYsfz8wAAAAAElFTkSuQmCC;" vertex="1" parent="1">
                    <mxGeometry x="399" y="225" width="30" height="30" as="geometry"/>
                </mxCell>
                <mxCell id="13" value="" style="endArrow=classic;html=1;fontSize=23;" edge="1" parent="1">
                    <mxGeometry relative="1" as="geometry">
                        <mxPoint x="10" y="320" as="sourcePoint"/>
                        <mxPoint x="130" y="320" as="targetPoint"/>
                    </mxGeometry>
                </mxCell>
                <mxCell id="15" value="LOGIN" style="edgeLabel;resizable=0;html=1;align=left;verticalAlign=bottom;" connectable="0" vertex="1" parent="13">
                    <mxGeometry x="-1" relative="1" as="geometry">
                        <mxPoint x="30" y="-10" as="offset"/>
                    </mxGeometry>
                </mxCell>
                <mxCell id="17" value="" style="endArrow=classic;html=1;fontSize=23;entryX=0.096;entryY=1.004;entryDx=0;entryDy=0;entryPerimeter=0;" edge="1" parent="1" target="4">
                    <mxGeometry relative="1" as="geometry">
                        <mxPoint x="200" y="320" as="sourcePoint"/>
                        <mxPoint x="320" y="320" as="targetPoint"/>
                    </mxGeometry>
                </mxCell>
                <mxCell id="18" value="LOGIN&lt;br&gt;&lt;div&gt;(email + password)&lt;/div&gt;" style="edgeLabel;resizable=0;html=1;align=center;verticalAlign=bottom;" connectable="0" vertex="1" parent="17">
                    <mxGeometry x="-1" relative="1" as="geometry">
                        <mxPoint x="90" y="-10" as="offset"/>
                    </mxGeometry>
                </mxCell>
                <mxCell id="19" value="USER (model)&lt;br&gt;(login - controller)" style="edgeLabel;resizable=0;html=1;align=center;verticalAlign=bottom;" connectable="0" vertex="1" parent="17">
                    <mxGeometry x="-1" relative="1" as="geometry">
                        <mxPoint x="330" y="-10" as="offset"/>
                    </mxGeometry>
                </mxCell>
                <mxCell id="24" value="TRUE" style="edgeLabel;resizable=0;html=1;align=center;verticalAlign=bottom;" connectable="0" vertex="1" parent="17">
                    <mxGeometry x="-1" relative="1" as="geometry">
                        <mxPoint x="340" y="130" as="offset"/>
                    </mxGeometry>
                </mxCell>
                <mxCell id="20" value="" style="endArrow=classic;html=1;fontSize=23;entryX=0.096;entryY=1.004;entryDx=0;entryDy=0;entryPerimeter=0;" edge="1" parent="1">
                    <mxGeometry relative="1" as="geometry">
                        <mxPoint x="444" y="320" as="sourcePoint"/>
                        <mxPoint x="633.26" y="320.0200000000001" as="targetPoint"/>
                    </mxGeometry>
                </mxCell>
                <mxCell id="23" value="" style="endArrow=classic;html=1;fontSize=23;" edge="1" parent="1">
                    <mxGeometry relative="1" as="geometry">
                        <mxPoint x="635" y="420" as="sourcePoint"/>
                        <mxPoint x="444" y="420" as="targetPoint"/>
                    </mxGeometry>
                </mxCell>
                <mxCell id="29" value="" style="endArrow=classic;html=1;fontSize=23;entryX=0.096;entryY=1.004;entryDx=0;entryDy=0;entryPerimeter=0;" edge="1" parent="1">
                    <mxGeometry relative="1" as="geometry">
                        <mxPoint x="383.26" y="420.02" as="sourcePoint"/>
                        <mxPoint x="200" y="420" as="targetPoint"/>
                    </mxGeometry>
                </mxCell>
                <mxCell id="30" value="SESSION&amp;nbsp;&lt;br&gt;choose-a-plant" style="edgeLabel;resizable=0;html=1;align=center;verticalAlign=bottom;" connectable="0" vertex="1" parent="29">
                    <mxGeometry x="-1" relative="1" as="geometry">
                        <mxPoint x="-93" y="40" as="offset"/>
                    </mxGeometry>
                </mxCell>
                <mxCell id="33" value="" style="endArrow=classic;html=1;fontSize=23;entryX=0.096;entryY=1.004;entryDx=0;entryDy=0;entryPerimeter=0;" edge="1" parent="1">
                    <mxGeometry relative="1" as="geometry">
                        <mxPoint x="200" y="560" as="sourcePoint"/>
                        <mxPoint x="383.26" y="560.02" as="targetPoint"/>
                    </mxGeometry>
                </mxCell>
                <mxCell id="34" value="LOG OUT" style="edgeLabel;resizable=0;html=1;align=center;verticalAlign=bottom;" connectable="0" vertex="1" parent="33">
                    <mxGeometry x="-1" relative="1" as="geometry">
                        <mxPoint x="90" y="30" as="offset"/>
                    </mxGeometry>
                </mxCell>
                <mxCell id="35" value="" style="endArrow=classic;html=1;fontSize=23;entryX=0.096;entryY=1.004;entryDx=0;entryDy=0;entryPerimeter=0;" edge="1" parent="1">
                    <mxGeometry relative="1" as="geometry">
                        <mxPoint x="383.26" y="640.02" as="sourcePoint"/>
                        <mxPoint x="200" y="640" as="targetPoint"/>
                    </mxGeometry>
                </mxCell>
                <mxCell id="36" value="SESSION" style="edgeLabel;resizable=0;html=1;align=center;verticalAlign=bottom;" connectable="0" vertex="1" parent="35">
                    <mxGeometry x="-1" relative="1" as="geometry">
                        <mxPoint x="-93" y="30" as="offset"/>
                    </mxGeometry>
                </mxCell>
                <mxCell id="38" value="" style="endArrow=none;html=1;fontSize=23;fillColor=#e51400;strokeColor=#B20000;" edge="1" parent="1">
                    <mxGeometry width="50" height="50" relative="1" as="geometry">
                        <mxPoint x="270" y="670" as="sourcePoint"/>
                        <mxPoint x="300" y="650" as="targetPoint"/>
                    </mxGeometry>
                </mxCell>
                <mxCell id="40" value="" style="endArrow=none;html=1;fontSize=23;fillColor=#e51400;strokeColor=#B20000;" edge="1" parent="1">
                    <mxGeometry width="50" height="50" relative="1" as="geometry">
                        <mxPoint x="300" y="670" as="sourcePoint"/>
                        <mxPoint x="270" y="650" as="targetPoint"/>
                    </mxGeometry>
                </mxCell>
            </root>
        </mxGraphModel>
    </diagram>
</mxfile>